<svg xmlns="http://www.w3.org/2000/svg" version="1.1" xmlns:xlink="http://www.w3.org/1999/xlink" xmlns:svgjs="http://svgjs.com/svgjs" width="512" height="512" x="0" y="0" viewBox="0 0 512 512" style="enable-background:new 0 0 512 512" xml:space="preserve" class=""><g><path fill="#d7e6f0" d="M336 472H176c-8.837 0-16-7.163-16-16v-16h176c8.837 0 16-7.163 16-16v32c0 8.837-7.163 16-16 16z" data-original="#d7e6f0"></path><path fill="#a5c3dc" d="M336 472H176c-8.837 0-16-7.163-16-16v-16h176c8.837 0 16-7.163 16-16v32c0 8.837-7.163 16-16 16z" data-original="#a5c3dc"></path><path fill="#463c4b" d="M112 408c-17.673 0-32-14.327-32-32V248c0-17.673 14.327-32 32-32 17.673 0 32 14.327 32 32v128c0 17.673-14.327 32-32 32z" data-original="#463c4b" class=""></path><path fill="#ffd205" d="M48 376h32V248H48c-17.673 0-32 14.327-32 32v64c0 17.673 14.327 32 32 32z" data-original="#ffd205" class=""></path><path fill="#555a6e" d="M80 312h32v-96c-17.673 0-32 14.327-32 32z" data-original="#555a6e" class=""></path><path fill="#faa019" d="M48 312h32v64H48z" data-original="#faa019"></path><path fill="#463c4b" d="M400 408c17.673 0 32-14.327 32-32V248c0-17.673-14.327-32-32-32-17.673 0-32 14.327-32 32v128c0 17.673 14.327 32 32 32z" data-original="#463c4b" class=""></path><path fill="#ffd205" d="M464 376h-32V248h32c17.673 0 32 14.327 32 32v64c0 17.673-14.327 32-32 32z" data-original="#ffd205" class=""></path><path fill="#555a6e" d="M432 312h-32v-96c17.673 0 32 14.327 32 32z" data-original="#555a6e" class=""></path><path fill="#faa019" d="M464 376h-32v-64h32zM464 248h-32v-16c0-97.047-78.953-176-176-176S80 134.953 80 232v16H48v-16c0-114.691 93.309-208 208-208s208 93.309 208 208z" data-original="#faa019"></path><path fill="#23aae6" d="M336 440H176c-8.837 0-16 7.163-16 16V200c0-8.837 7.163-16 16-16h160c8.837 0 16 7.163 16 16v224c0 8.837-7.163 16-16 16z" data-original="#23aae6" class=""></path><path fill="#faa019" d="M218.343 488c-1.5 0-2.939-.596-4-1.657L200 472l-14.343 14.343a5.657 5.657 0 0 1-9.657-4V456h48v26.343a5.657 5.657 0 0 1-5.657 5.657z" data-original="#faa019"></path><circle cx="256" cy="312" r="80" fill="#5ad7ff" data-original="#5ad7ff" class=""></circle><path fill="#d7e6f0" d="M230.141 264c1.212 0 2.398.359 3.406 1.031l58.015 38.677a9.967 9.967 0 0 1 0 16.584l-58.015 38.677a6.141 6.141 0 0 1-9.547-5.11V270.14a6.14 6.14 0 0 1 6.141-6.14z" data-original="#d7e6f0"></path></g></svg>