<svg xmlns="http://www.w3.org/2000/svg" version="1.1" xmlns:xlink="http://www.w3.org/1999/xlink" xmlns:svgjs="http://svgjs.com/svgjs" width="512" height="512" x="0" y="0" viewBox="0 0 512 512" style="enable-background:new 0 0 512 512" xml:space="preserve" class=""><g><path fill="#9dc6fb" d="M423.038 14.987a2753.742 2753.742 0 0 0-334.074 0C44.3 17.699 8.583 52.921 4.883 97.515a1420.533 1420.533 0 0 0-.002 235.28c3.706 44.672 39.542 79.845 84.287 82.544a2794.217 2794.217 0 0 0 53.283 2.702c9.942.409 19.359 4.572 26.395 11.608l62.028 62.027c13.878 13.878 36.379 13.878 50.257 0l62.028-62.027c7.036-7.036 16.453-11.198 26.395-11.608 17.761-.731 35.522-1.63 53.282-2.702 44.744-2.699 80.581-37.871 84.287-82.543a1420.424 1420.424 0 0 0-.002-235.28c-3.702-44.595-39.419-79.817-84.083-82.529z" data-original="#9dc6fb" class=""></path><path fill="#80b4fb" d="M261.222 501.689c-10.745 1.597-22.077-1.741-30.349-10.014l-62.027-62.027c-7.036-7.036-16.452-11.198-26.393-11.61-17.76-.721-35.52-1.628-53.281-2.699-44.751-2.699-80.58-37.869-84.289-82.538a1419.47 1419.47 0 0 1 0-235.282c3.533-42.598 36.283-76.645 78.139-81.971C53.899 28.58 32.605 61.679 29.927 97.519a1579.065 1579.065 0 0 0 0 235.282c3.338 44.669 35.603 79.839 75.883 82.538 15.988 1.071 47.429 1.978 63.418 2.699 8.952.412 17.431 4.574 23.766 11.61l55.836 62.027c5.047 5.604 8.838 8.942 12.392 10.014z" data-original="#80b4fb"></path><path fill="#21386b" d="m285.597 216.159 119.364 68.915c15.501 8.949 34.876-2.237 34.876-20.136V167.38c0-17.899-19.376-29.085-34.876-20.136z" data-original="#21386b"></path><path fill="#26457d" d="M320.578 315.199a1436.382 1436.382 0 0 1-172.978 0c-21.736-1.31-39.209-18.39-41.078-40.086a685.573 685.573 0 0 1 0-117.908c1.869-21.695 19.342-38.775 41.078-40.086a1436.382 1436.382 0 0 1 172.978 0c21.736 1.31 39.209 18.39 41.078 40.086a685.573 685.573 0 0 1 0 117.908c-1.869 21.696-19.342 38.776-41.078 40.086z" data-original="#26457d" class=""></path><path fill="#21386b" d="M361.66 275.135c-1.885 21.675-19.357 38.745-41.083 40.064a1437.604 1437.604 0 0 1-172.977 0c-21.727-1.319-39.198-18.389-41.073-40.064 7.84 3.544 17.544 5.769 28.134 6.14a2895.255 2895.255 0 0 0 198.855 0c10.59-.37 20.305-2.596 28.144-6.14z" data-original="#21386b"></path><path fill="#ee596b" d="m276.845 201.2-46.035-26.579c-11.516-6.649-25.91 1.662-25.91 14.959v53.157c0 13.297 14.395 21.608 25.91 14.959l46.035-26.579c11.516-6.647 11.516-23.268 0-29.917z" data-original="#ee596b"></path></g></svg>